<svg version="1" xmlns="http://www.w3.org/2000/svg" width="933.333" height="933.333" viewBox="0 0 700.000000 700.000000"><path d="M318.5 184.6c-19.1 2.2-34.9 8.7-46.4 19-13.1 11.8-28.9 43.4-33.9 67.9-2.9 14-3.3 17.5-3.3 30.6l.1 11.6-7.3 4.8c-26.3 17.5-43.9 36-58.6 62-11.3 20.2-18.7 40.9-23.6 66.4-3.1 16.4-2.2 33.2 2.4 43.5 6 13.6 22.6 21.6 43.8 21.1 6-.2 11.7-.6 12.8-.9 1.1-.3 3.9-1 6.2-1.6 18.7-4.5 53.3-24.2 88.9-50.6 6.3-4.6 11.8-8.5 12.2-8.7.5-.1 2.8 1.4 5.2 3.3 21.1 17.1 57.5 36.2 86.5 45.3 10.2 3.2 31.5 8.4 38 9.3 2.8.3 5.9.8 7 1 2.7.6 14.9 2.3 21 3 14.8 1.6 66.2 1 78-.9 1.7-.3 5-.8 7.5-1.2 15-2.2 35.5-8.8 50.5-16.2 46.1-22.8 75.8-65.3 82-117.3.4-3 .9-6.9 1.1-8.5.4-3.9.4-32.3 0-35.5-2.3-15.9-2.5-16.5-4.7-25.5-6.2-24.6-17.6-47-32.1-63.1-35.4-39.4-88-57.7-165.8-57.7-16.6 0-79.3 1.2-79.6 1.6-.1.1-.5 6.9-.8 15.2-.3 8.2-.8 16.1-1 17.5-.3 1.4-.7 5.2-1.1 8.5-3.6 33.5-21.8 79.5-48.5 122.3-8.9 14.2-28.7 39.2-31.1 39.2-1.7 0-24.9-23.2-34.4-34.5-9.8-11.7-19.5-24.7-19.5-26.1 0-.5 2.1-2.3 4.7-3.9 18-11.7 39.7-27 47.4-33.6 16-13.5 30.5-31.9 41.3-52.2 11.1-20.8 12.5-35.1 4.3-44-5.8-6.4-16-10.3-29.7-11.3-3.6-.3-6.9-.7-7.5-.8-.5-.1-5.9.3-12 1zm9.8 31.3c4.4 4.4 2.2 16.8-5.2 28.1-3.7 5.8-17.8 20.4-27.1 28.1-10.4 8.7-28.6 20.9-31.1 20.9-1.3 0-.3-11.8 1.7-20 4.3-17.5 16.9-36.1 32.4-48 2.5-1.9 4.7-3.7 5-4 .8-.8 4.3-2.9 7-4.1 9.1-4.2 13.9-4.4 17.3-1zM535 240.4c32.6 4.9 56.3 17.4 73.2 38.4 10.2 12.8 19.1 32.5 21.3 47.3 1.7 12.1 2 15.2 1.9 22.6-1 51.3-29.5 91.9-74.9 106.5-21.5 6.9-44.6 8-79 3.8-37.5-4.7-75.7-17-102.4-33.2-4.7-2.9-8.8-5.5-9.1-5.9-.3-.3-3.5-2.6-7.2-5.1l-6.6-4.5 2.5-2.9c1.3-1.6 4.6-5.4 7.1-8.4 2.6-3 5.4-6.1 6.2-7 .8-.8 5-5.8 9.4-11 4.3-5.2 8.9-10.7 10.2-12.2 3.2-3.7 21.6-28.6 28.3-38.4 14.7-21.4 30.5-50.8 40-74.3 2.7-6.8 5.4-12.8 5.9-13.3 1.2-1.2 3.5-1.5 18.7-2.3 6-.4 11.1-.8 11.3-1 .6-.6 38.6.2 43.2.9zM245.5 358.5c4.1 9.3 13 24.3 21.8 36.7 3.4 4.9 8.8 12.5 12 17l5.8 8.3-3.4 3c-3.8 3.4-7.1 6.1-20.6 16.3-24.8 18.7-48.6 24.8-61 15.5-7.5-5.7-12-18.1-10.6-29.4.9-7.5 4.9-19.1 9-26.1 1.9-3.3 3.5-6.1 3.5-6.4 0-.7 10-14.4 14.9-20.4 7.8-9.6 22.5-23.2 24.4-22.7.4.1 2.3 3.8 4.2 8.2z"/><path d="M36 187.6c0 .4 2.1 4.5 4.6 9.1 2.5 4.6 5.8 10.7 7.3 13.6 1.5 2.9 5.7 10.6 9.3 17.2 3.6 6.6 8.1 14.9 10 18.5 9.8 18.3 13.3 24.8 28 51.9 20.9 38.4 19.8 36.4 19.8 37.5 0 .5-2.7 5-5.9 10-18.6 28.7-35.3 72.4-40.7 106.3-.2 1.5-.8 5.5-1.4 8.8-2.4 15.3-3.8 36.8-3.1 50.2l.1 2.3h55l-.8-4.8c-.9-6.2-.9-31.8.1-40.8.8-7.4 1-8.5 2.7-17 .6-2.8 1.3-6.2 1.5-7.6 1-5.4 6.8-23.7 10.3-32.3 4.2-10.6 13.9-29.8 18.2-36 1.6-2.4 3-4.7 3-5 0-.4.8-1.7 1.8-3 .9-1.2 2.4-3.3 3.2-4.5 13-19.5 35.4-42.1 52.4-52.9l5-3.1.1-13.7c.1-15.2 1.9-24.6 7.7-40.3 2.9-8.1 13-29.3 17.6-37.3 1.2-2 3.1-5.4 4.3-7.4 2.8-4.9 9.2-14.2 11.9-17.3l2.2-2.5-30.4-.3c-16.6-.1-30.8 0-31.5.2-.6.3-1.7 1.6-2.5 3-.7 1.4-4 6.9-7.3 12.3s-6.5 10.7-7.1 11.8c-.6 1.1-2.9 5-5.2 8.8-2.3 3.7-4.2 7-4.2 7.3 0 .3-1.1 2-2.5 3.8-1.4 1.8-2.5 3.5-2.5 3.9 0 .6-12.8 21.9-13.8 22.9-.7.7-7.1-9.6-36.8-58.7l-9.1-15-35.7-.3c-19.6-.1-35.6.1-35.6.4z"/></svg>