<svg id="Ebene_1" data-name="Ebene 1" xmlns="http://www.w3.org/2000/svg" viewBox="0 0 1700 900"><defs><style>.cls-1{fill:#d9e021;}.cls-1,.cls-2,.cls-3,.cls-4{stroke:#fff;stroke-miterlimit:10;stroke-width:4px;}.cls-2{fill:#8cc63f;}.cls-3{fill:#009245;}.cls-4{fill:#39b54a;}</style></defs><title>Zeichenfläche 1</title><path class="cls-1" d="M1156.5,58.2,976.36,61.44a13.77,13.77,0,0,0-2.43.2s0,69.11-8.21,114.55c-2.43,13.53-4.86,26.82-8.18,41.39,137.6-41.67,273.94-88.05,409-137.24C1298.28,62.4,1225.65,57.22,1156.5,58.2Z"/><path class="cls-2" d="M1104.34,193.61c1.81-5,48.88-6.15,55.24-6.67,38.89-3.24,78.92-4.46,118.12-.22q24.3-12.7,48.54-25a740,740,0,0,1,124.28-51.25,478.34,478.34,0,0,0-84-30.21c-135.09,49.18-271.4,95.6-409,137.24-7.9,34.36-21.31,76-54.49,145.57-7,14.71-14.58,29.17-22.5,43.51,58-32.41,115.51-65,172.56-97.14A934.21,934.21,0,0,0,1104.34,193.61Z"/><path class="cls-2" d="M985.16,419.63A955.17,955.17,0,0,0,1053,309.5C996,341.6,938.47,374.24,880.48,406.63c-11.43,20.75-23.61,41.1-36.54,60.83C835.72,480,827,492.25,818,504.2q32.41,23.24,66.07,45.21C917,511,959.87,458.85,985.16,419.63Z"/><path class="cls-3" d="M1583,698.24a338.64,338.64,0,0,0,43.44-75.86,413.84,413.84,0,0,0,26.83-99.84,472.41,472.41,0,0,0,3.53-99.36c-.32-4.44-.75-8.91-1.2-13.34q-69.57,53.37-140.42,103.39c-.23,1.16-.43,2.32-.68,3.48a270.09,270.09,0,0,1-69,130c-30,31.06-64.66,51.66-102.18,64.46A905.4,905.4,0,0,0,1583,698.24Z"/><path class="cls-4" d="M1515.2,513.22q70.86-50,140.42-103.39c-8.1-78.75-38.64-158.89-92.48-217.41-32.6-35.43-70.91-62.07-112.61-81.9a740,740,0,0,0-124.28,51.25q-24.21,12.23-48.54,25c31.83,3.44,63.1,10.48,92.74,23.09C1491.26,261.26,1540.23,390.41,1515.2,513.22Z"/><path class="cls-2" d="M1005.14,824.47c92.07,23.49,190.16,29.72,283.3,21.71a1714.37,1714.37,0,0,1-213.88-58.95Q1040,806.14,1005.14,824.47Z"/><path class="cls-2" d="M1583,698.24a905.4,905.4,0,0,1-239.63,13c-1.62.57-3.29,1.21-5,1.74-42.13,13.5-87.7,17.3-134.2,14.86-7.1-.37-14.19-.94-21.28-1.51q-53.86,31.3-108.37,61a1714.37,1714.37,0,0,0,213.88,58.95c4.51-.39,9-.81,13.5-1.23C1413.65,833.64,1517.19,784.91,1583,698.24Z"/><path class="cls-3" d="M680.57,626.38c2,2.9-69.37,56.82-74.53,60.24-15.28,10.2-31.91,19.88-49.42,26.83a143.51,143.51,0,0,1-41.54,10.17c-12.1,1-24.62-.11-35.57-5.31-11.71-5.57-20.93-15.61-26.91-27.11-7.74-14.89-10.29-32.17-8.91-48.91a121.07,121.07,0,0,1,2.17-14.77q-49.94,21.57-100.26,40.86a398.36,398.36,0,0,0-8.1,53.06c-1.39,17.07-1.67,34.4,1.76,51.18s10.8,33.09,23,45.1c13,12.78,30.55,19.88,48.19,24.45,74.73,19.39,152.48-26.29,213.53-64.54,27.34-17.13,54.28-35.09,80.1-54.39,8.1-6.06,40.43-29.82,40.43-29.82s18,15.82,36.21,28.51c32.11,22.38,62,39.21,97.18,56.36,40.22,19.62,83,34.89,127.24,46.18q34.84-18.28,69.42-37.27c-143.74-49.5-282.15-116.39-416.18-192.5C665.75,605.07,673.16,615.51,680.57,626.38Z"/><path class="cls-1" d="M1095.32,714.19c-39.81-7.78-78.58-19-116.72-32.54-37.07-13.16-79.55-36.93-111.88-59.45-12-8.38-16.92-11.74-28.46-20.73,0,0,19.79-21.74,45.78-52.06Q850.26,527.53,818,504.2a589.6,589.6,0,0,1-38,45.54c-.36.4-6.84,7.36-7,7.24a842.54,842.54,0,0,1-60.89-58.54q-44.36,23.43-89.07,45.94c11.23,16.82,23.17,33.38,35.29,50.37,134,76.1,272.44,143,416.18,192.5q54.49-29.75,108.37-61A787.53,787.53,0,0,1,1095.32,714.19Z"/><path class="cls-2" d="M559.94,301.88c-.74,6.91-1.2,13.89-1.55,20.89l21.69-4.86C573.36,312.58,566.72,307.21,559.94,301.88Z"/><path class="cls-2" d="M365.57,601.05a497.43,497.43,0,0,0-20,67.32q50.32-19.2,100.26-40.86a167.7,167.7,0,0,1,11.05-33.6c12.58-28.48,30.83-53.93,49.67-78.58,2-2.59,4.05-5.14,6.08-7.67Q478.09,486.1,443.91,464C410.05,504.59,384,551.6,365.57,601.05Z"/><path class="cls-2" d="M569.38,454.08l4.54-3.24c12.63,34.84,29.88,64.64,49.17,93.53q44.7-22.46,89.07-45.94c-27.93-29.74-52.66-60.76-73.55-93.25-.09-.15,12.31-8.91,26.64-18.92Q623,352.18,580.08,317.91l-21.69,4.86a386.49,386.49,0,0,0,.43,45.49s-14.06,9.31-16.47,10.8c-7.19,4.46-14.27,9.07-21.19,13.94a412.73,412.73,0,0,0-39.56,31.65A394.11,394.11,0,0,0,443.91,464q34.18,22.08,68.73,43.66A288.56,288.56,0,0,1,569.38,454.08Z"/><path class="cls-1" d="M625.81,307.35q.16-7,.81-13.92c3.33-32.63,15.6-64,34.27-91a225.22,225.22,0,0,1,41.41-45.26c11.69-9.72,23.49-19.54,37-26.66,11.52-6.08,29.59-13.65,41.87-5.67,8.47,5.51,10.67,17,9.77,27.09-3.56,39.5-36.76,72.58-64.4,97.83-18.58,17-38.08,33.22-58.89,47.47q77-18.88,153.35-40.11a443,443,0,0,0,40.26-60.21q5.41-9.72,10.35-19.62c13.26-26.66,28.74-63.76,9.52-91.41-8.16-11.75-21.51-18.84-35-23.44-26.73-9.1-55.68-10.07-83.8-7.34-46.57,4.51-91.84,20.36-124,55.65C623.59,127,612,145.94,602.94,165.85q-35.52,64.72-43.06,136c6.77,5.33,13.42,10.69,20.14,16Q603,312.75,625.81,307.35Z"/><path class="cls-4" d="M707.28,357c31.4-21.27,62.11-43.65,88.54-71,8.91-9.2,17.28-18.86,25.24-28.86q-76.43,21.19-153.35,40.11c-6.48,4.42-13,8.66-19.72,12.65q-8.51,5.07-17.27,9.68L625.86,322s-.11-12.62-.08-14.1v-.58q-22.85,5.4-45.72,10.57,42.94,34.15,85.16,68.34C683,373.82,703.74,359.43,707.28,357Z"/><path class="cls-2" d="M149.41,732c-5.67,39.92-8.1,79.49-6.65,117.13H272.2S259.58,785,278.78,692.63Q214.4,714.73,149.41,732Z"/><path class="cls-2" d="M247.07,379.87c19-2.73,37.92-5.67,56.85-8.66q-49.19-33.35-97.71-66.92Z"/><path class="cls-1" d="M513.89,266.34c-30.33-23-61.4-45.67-93.75-67.59-8.29-5.44-16.61-10.73-24.94-16L357,246.53,277.76,116.34C240.23,97,202.47,79,164.65,61.61H75L206.2,304.3q48.51,33.49,97.71,66.92,103-16.36,205.19-37.85C507.89,320,507.58,297.1,513.89,266.34Z"/><path class="cls-3" d="M247.07,379.87l22.06,40.78c-60.92,83.16-103.7,198.63-119.71,311.26q65-17,129.37-39.32A545.28,545.28,0,0,1,326.1,557.77c25.06-49.63,52.53-88.86,78.45-119.35q-50.72-33.29-100.67-67.24Q275.54,375.73,247.07,379.87Z"/><path class="cls-2" d="M511.06,346.69a96.5,96.5,0,0,1-2-13.33Q407,354.8,303.91,371.21q50,33.87,100.67,67.24C461.56,371.44,511.06,346.69,511.06,346.69Z"/><path class="cls-2" d="M244.46,61.61H164.65C202.47,79,240.23,97,277.76,116.34Z"/><path class="cls-2" d="M513.89,266.34c4.42-21.53,12-46.82,24.9-75.29C581.94,95.51,614.3,61.61,614.3,61.61H467.88L395.19,182.8q12.5,7.83,24.94,16C452.49,220.67,483.55,243.34,513.89,266.34Z"/></svg>